<mxfile host="www.draw.io" modified="2020-02-07T15:48:02.874Z" agent="Mozilla/5.0 (Macintosh; Intel Mac OS X 10_14_6) AppleWebKit/605.1.15 (KHTML, like Gecko) Version/13.0.5 Safari/605.1.15" etag="NITKhIREXZv553NcYgpV" version="12.6.6" type="github">
  <diagram id="h6TL4ozzjsjhn3Ew4Ioh" name="Page-1">
    <mxGraphModel dx="770" dy="489" grid="1" gridSize="10" guides="1" tooltips="1" connect="1" arrows="1" fold="1" page="1" pageScale="1" pageWidth="850" pageHeight="1100" math="0" shadow="0">
      <root>
        <mxCell id="0"/>
        <mxCell id="1" parent="0"/>
        <mxCell id="ksRfhFTR0AgC3WkYPQoN-1" value="Movie Theater" style="rounded=1;whiteSpace=wrap;html=1;" vertex="1" parent="1">
          <mxGeometry x="310" y="200" width="120" height="60" as="geometry"/>
        </mxCell>
        <mxCell id="ksRfhFTR0AgC3WkYPQoN-2" value="Sales of tickets" style="rounded=0;whiteSpace=wrap;html=1;" vertex="1" parent="1">
          <mxGeometry x="600" y="190" width="120" height="60" as="geometry"/>
        </mxCell>
        <mxCell id="ksRfhFTR0AgC3WkYPQoN-3" value="Sales of popcorn/candy" style="rounded=0;whiteSpace=wrap;html=1;" vertex="1" parent="1">
          <mxGeometry x="40" y="200" width="120" height="60" as="geometry"/>
        </mxCell>
        <mxCell id="ksRfhFTR0AgC3WkYPQoN-4" value="Movie times" style="rounded=0;whiteSpace=wrap;html=1;" vertex="1" parent="1">
          <mxGeometry x="310" y="40" width="120" height="60" as="geometry"/>
        </mxCell>
        <mxCell id="ksRfhFTR0AgC3WkYPQoN-5" value="Number of seats filled" style="rounded=0;whiteSpace=wrap;html=1;" vertex="1" parent="1">
          <mxGeometry x="480" y="370" width="120" height="60" as="geometry"/>
        </mxCell>
        <mxCell id="ksRfhFTR0AgC3WkYPQoN-6" value="" style="endArrow=none;html=1;entryX=0;entryY=0.5;entryDx=0;entryDy=0;exitX=1;exitY=0.5;exitDx=0;exitDy=0;" edge="1" parent="1" source="ksRfhFTR0AgC3WkYPQoN-3" target="ksRfhFTR0AgC3WkYPQoN-1">
          <mxGeometry width="50" height="50" relative="1" as="geometry">
            <mxPoint x="250" y="240" as="sourcePoint"/>
            <mxPoint x="300" y="190" as="targetPoint"/>
          </mxGeometry>
        </mxCell>
        <mxCell id="ksRfhFTR0AgC3WkYPQoN-7" value="" style="endArrow=none;html=1;entryX=0.25;entryY=1;entryDx=0;entryDy=0;exitX=0.85;exitY=0.033;exitDx=0;exitDy=0;exitPerimeter=0;" edge="1" parent="1" source="ksRfhFTR0AgC3WkYPQoN-11" target="ksRfhFTR0AgC3WkYPQoN-1">
          <mxGeometry width="50" height="50" relative="1" as="geometry">
            <mxPoint x="370" y="260" as="sourcePoint"/>
            <mxPoint x="420" y="180" as="targetPoint"/>
          </mxGeometry>
        </mxCell>
        <mxCell id="ksRfhFTR0AgC3WkYPQoN-8" value="" style="endArrow=none;html=1;entryX=1;entryY=0.5;entryDx=0;entryDy=0;exitX=1;exitY=1;exitDx=0;exitDy=0;" edge="1" parent="1" source="ksRfhFTR0AgC3WkYPQoN-20" target="ksRfhFTR0AgC3WkYPQoN-1">
          <mxGeometry width="50" height="50" relative="1" as="geometry">
            <mxPoint x="120" y="470" as="sourcePoint"/>
            <mxPoint x="170" y="420" as="targetPoint"/>
          </mxGeometry>
        </mxCell>
        <mxCell id="ksRfhFTR0AgC3WkYPQoN-9" value="" style="endArrow=none;html=1;entryX=0.5;entryY=0;entryDx=0;entryDy=0;exitX=0.5;exitY=1;exitDx=0;exitDy=0;" edge="1" parent="1" source="ksRfhFTR0AgC3WkYPQoN-4" target="ksRfhFTR0AgC3WkYPQoN-1">
          <mxGeometry width="50" height="50" relative="1" as="geometry">
            <mxPoint x="120" y="470" as="sourcePoint"/>
            <mxPoint x="170" y="420" as="targetPoint"/>
          </mxGeometry>
        </mxCell>
        <mxCell id="ksRfhFTR0AgC3WkYPQoN-10" value="" style="endArrow=none;html=1;entryX=0.75;entryY=1;entryDx=0;entryDy=0;exitX=0.25;exitY=0;exitDx=0;exitDy=0;" edge="1" parent="1" source="ksRfhFTR0AgC3WkYPQoN-5" target="ksRfhFTR0AgC3WkYPQoN-1">
          <mxGeometry width="50" height="50" relative="1" as="geometry">
            <mxPoint x="120" y="470" as="sourcePoint"/>
            <mxPoint x="170" y="420" as="targetPoint"/>
          </mxGeometry>
        </mxCell>
        <mxCell id="ksRfhFTR0AgC3WkYPQoN-11" value="Number of employees on shift" style="rounded=0;whiteSpace=wrap;html=1;" vertex="1" parent="1">
          <mxGeometry x="170" y="360" width="120" height="60" as="geometry"/>
        </mxCell>
        <mxCell id="ksRfhFTR0AgC3WkYPQoN-12" value="(1,M)" style="text;html=1;strokeColor=none;fillColor=none;align=center;verticalAlign=middle;whiteSpace=wrap;rounded=0;" vertex="1" parent="1">
          <mxGeometry x="370" y="100" width="40" height="20" as="geometry"/>
        </mxCell>
        <mxCell id="ksRfhFTR0AgC3WkYPQoN-13" value="(M,1)" style="text;html=1;strokeColor=none;fillColor=none;align=center;verticalAlign=middle;whiteSpace=wrap;rounded=0;" vertex="1" parent="1">
          <mxGeometry x="370" y="180" width="40" height="20" as="geometry"/>
        </mxCell>
        <mxCell id="ksRfhFTR0AgC3WkYPQoN-14" value="(M,1)" style="text;html=1;strokeColor=none;fillColor=none;align=center;verticalAlign=middle;whiteSpace=wrap;rounded=0;" vertex="1" parent="1">
          <mxGeometry x="270" y="210" width="40" height="20" as="geometry"/>
        </mxCell>
        <mxCell id="ksRfhFTR0AgC3WkYPQoN-15" value="(1,M)" style="text;html=1;strokeColor=none;fillColor=none;align=center;verticalAlign=middle;whiteSpace=wrap;rounded=0;" vertex="1" parent="1">
          <mxGeometry x="160" y="210" width="40" height="20" as="geometry"/>
        </mxCell>
        <mxCell id="ksRfhFTR0AgC3WkYPQoN-16" value="(1,M)" style="text;html=1;strokeColor=none;fillColor=none;align=center;verticalAlign=middle;whiteSpace=wrap;rounded=0;" vertex="1" parent="1">
          <mxGeometry x="210" y="340" width="40" height="20" as="geometry"/>
        </mxCell>
        <mxCell id="ksRfhFTR0AgC3WkYPQoN-17" value="(M,1)" style="text;html=1;strokeColor=none;fillColor=none;align=center;verticalAlign=middle;whiteSpace=wrap;rounded=0;" vertex="1" parent="1">
          <mxGeometry x="300" y="260" width="40" height="20" as="geometry"/>
        </mxCell>
        <mxCell id="ksRfhFTR0AgC3WkYPQoN-18" value="(1,M)" style="text;html=1;strokeColor=none;fillColor=none;align=center;verticalAlign=middle;whiteSpace=wrap;rounded=0;" vertex="1" parent="1">
          <mxGeometry x="530" y="350" width="40" height="20" as="geometry"/>
        </mxCell>
        <mxCell id="ksRfhFTR0AgC3WkYPQoN-19" value="(M,1)" style="text;html=1;strokeColor=none;fillColor=none;align=center;verticalAlign=middle;whiteSpace=wrap;rounded=0;" vertex="1" parent="1">
          <mxGeometry x="410" y="260" width="40" height="20" as="geometry"/>
        </mxCell>
        <mxCell id="ksRfhFTR0AgC3WkYPQoN-20" value="(1,M)" style="text;html=1;strokeColor=none;fillColor=none;align=center;verticalAlign=middle;whiteSpace=wrap;rounded=0;" vertex="1" parent="1">
          <mxGeometry x="560" y="210" width="40" height="20" as="geometry"/>
        </mxCell>
        <mxCell id="ksRfhFTR0AgC3WkYPQoN-21" value="(M,1)" style="text;html=1;strokeColor=none;fillColor=none;align=center;verticalAlign=middle;whiteSpace=wrap;rounded=0;" vertex="1" parent="1">
          <mxGeometry x="430" y="210" width="40" height="20" as="geometry"/>
        </mxCell>
        <mxCell id="ksRfhFTR0AgC3WkYPQoN-22" value="Showing" style="text;html=1;strokeColor=none;fillColor=none;align=center;verticalAlign=middle;whiteSpace=wrap;rounded=0;" vertex="1" parent="1">
          <mxGeometry x="380" y="140" width="40" height="20" as="geometry"/>
        </mxCell>
        <mxCell id="ksRfhFTR0AgC3WkYPQoN-23" value="Selling" style="text;html=1;strokeColor=none;fillColor=none;align=center;verticalAlign=middle;whiteSpace=wrap;rounded=0;" vertex="1" parent="1">
          <mxGeometry x="210" y="210" width="40" height="20" as="geometry"/>
        </mxCell>
        <mxCell id="ksRfhFTR0AgC3WkYPQoN-24" value="Working" style="text;html=1;strokeColor=none;fillColor=none;align=center;verticalAlign=middle;whiteSpace=wrap;rounded=0;" vertex="1" parent="1">
          <mxGeometry x="260" y="300" width="40" height="20" as="geometry"/>
        </mxCell>
        <mxCell id="ksRfhFTR0AgC3WkYPQoN-25" value="Counting" style="text;html=1;strokeColor=none;fillColor=none;align=center;verticalAlign=middle;whiteSpace=wrap;rounded=0;" vertex="1" parent="1">
          <mxGeometry x="470" y="300" width="40" height="20" as="geometry"/>
        </mxCell>
        <mxCell id="ksRfhFTR0AgC3WkYPQoN-26" value="Selling" style="text;html=1;strokeColor=none;fillColor=none;align=center;verticalAlign=middle;whiteSpace=wrap;rounded=0;" vertex="1" parent="1">
          <mxGeometry x="490" y="210" width="40" height="20" as="geometry"/>
        </mxCell>
      </root>
    </mxGraphModel>
  </diagram>
</mxfile>
